<?xml version="1.0" encoding="UTF-8"?>
<svg version="1.1" xmlns="http://www.w3.org/2000/svg" width="1024" height="1024">
<path d="M0 0 C337.92 0 675.84 0 1024 0 C1024 337.92 1024 675.84 1024 1024 C686.08 1024 348.16 1024 0 1024 C0 686.08 0 348.16 0 0 Z " fill="#146CA0" transform="translate(0,0)"/>
<path d="M0 0 C1.31478333 0.00212242 1.31478333 0.00212242 2.65612793 0.00428772 C5.42703821 0.00983857 8.19786457 0.02238164 10.96875 0.03515625 C12.85937382 0.04017761 14.74999893 0.0447394 16.640625 0.04882812 C21.25003183 0.05979185 25.85937673 0.077022 30.46875 0.09765625 C29.94663874 7.72343201 29.37255989 15.33861237 28.66821289 22.94970703 C27.90795055 31.36006489 27.23090971 39.77838168 27.03125 48.22265625 C26.99700928 48.93776367 26.96276855 49.65287109 26.92749023 50.38964844 C26.89536259 54.14903518 27.45584998 56.55573381 29.74609375 59.46484375 C33.77846969 63.36415706 36.25424253 64.39437183 41.84375 64.47265625 C47.76232649 64.36217616 50.84139024 62.65562163 55.06787109 58.54077148 C57.22305435 54.78215893 57.15459839 51.02657032 57.3828125 46.7578125 C57.44278412 45.83987411 57.50275574 44.92193573 57.56454468 43.97618103 C57.75370566 41.0381471 57.92412862 38.0993767 58.09375 35.16015625 C58.21488091 33.21671762 58.33726391 31.2733566 58.4609375 29.33007812 C58.63669347 26.56159273 58.81080603 23.79313685 58.9750061 21.02394104 C59.38988102 14.03838601 59.93174108 7.07877222 60.46875 0.09765625 C111.28875 0.09765625 162.10875 0.09765625 214.46875 0.09765625 C217.04389997 7.82310616 216.54263903 16.51044745 216.64453125 24.58984375 C216.65652557 25.43065491 216.6685199 26.27146606 216.68087769 27.13775635 C216.72953098 30.6390577 216.77706075 34.13998652 216.79467773 37.64160156 C216.81016445 40.22907477 216.85031059 42.81522275 216.89453125 45.40234375 C216.89166862 46.57904129 216.89166862 46.57904129 216.88874817 47.7795105 C217.0047133 52.9946485 218.07274107 55.93314467 221.46875 60.09765625 C225.16864473 63.52682697 228.0479849 64.39735374 232.96875 64.59765625 C237.86832754 64.41125928 240.74416458 63.44978313 244.46875 60.09765625 C247.3715289 56.90811351 247.845136 54.8477628 247.83203125 50.56640625 C247.83267578 49.45813477 247.83332031 48.34986328 247.83398438 47.20800781 C247.81658203 46.0165918 247.79917969 44.82517578 247.78125 43.59765625 C247.77287109 42.37272461 247.76449219 41.14779297 247.75585938 39.88574219 C247.5864873 26.58325932 246.61313474 13.34938804 245.46875 0.09765625 C250.64244157 -0.00240771 255.81555047 -0.07436643 260.98999023 -0.12207031 C262.74432202 -0.14198947 264.49858916 -0.16913509 266.25268555 -0.20410156 C279.86335797 -0.46831102 292.58884258 -0.24888334 303.47265625 9.1171875 C312.10498118 17.68194042 316.89622959 26.11402248 316.98507524 38.39922673 C316.97342387 39.58309607 316.9617725 40.76696542 316.94976807 41.98670959 C316.95318577 43.2643842 316.95660347 44.54205881 316.96012473 45.85845083 C316.96902357 49.38419046 316.95313211 52.90943947 316.93301249 56.43511665 C316.91567781 60.24480919 316.92158842 64.05447587 316.92462158 67.86419678 C316.92671516 74.45791702 316.91420535 81.05147847 316.89167023 87.64515877 C316.85910991 97.17839071 316.84873909 106.71154616 316.84371826 116.24482768 C316.83497193 131.71331076 316.80837432 147.18170929 316.77050781 162.65014648 C316.73377059 177.67292865 316.70546721 192.69568782 316.68847656 207.71850586 C316.68742567 208.64509697 316.68637477 209.57168809 316.68529204 210.52635772 C316.68007174 215.17496802 316.67501694 219.82357849 316.67004442 224.47218907 C316.62860299 263.01407065 316.55817259 301.55585786 316.46875 340.09765625 C279.14445176 340.3548588 241.82013899 340.60984803 204.49580641 340.86202079 C200.05172891 340.89204794 195.60765153 340.92209273 191.16357422 340.95214844 C189.83691959 340.96112028 189.83691959 340.96112028 188.48346385 340.97027338 C174.31379802 341.06614108 160.14414227 341.16342478 145.97448996 341.26126707 C131.34732989 341.36223561 116.72015952 341.46160089 102.09297919 341.55959034 C93.91415387 341.61442441 85.73533431 341.66991799 77.55652618 341.7272644 C36.85980388 342.0121901 -3.83342772 342.16439268 -44.53125 342.09765625 C-44.59993599 302.64832535 -44.65278888 263.19900225 -44.68444599 223.74962348 C-44.68819805 219.09089473 -44.69208102 214.43216608 -44.69604492 209.7734375 C-44.69683185 208.84597941 -44.69761878 207.91852132 -44.69842956 206.96295844 C-44.71147887 191.95118808 -44.7351301 176.93945222 -44.76270839 161.92770232 C-44.79077579 146.52106712 -44.80742909 131.11444998 -44.81351548 115.70779026 C-44.81762915 106.20319725 -44.83061586 96.69870179 -44.8549994 87.19413881 C-44.87087306 80.67403672 -44.87564666 74.15398496 -44.87175413 67.63386495 C-44.86983512 63.87366444 -44.8727501 60.11363425 -44.88886642 56.35346413 C-44.90623498 52.27118674 -44.90019801 48.18927018 -44.89201355 44.10696411 C-44.90512134 42.33552935 -44.90512134 42.33552935 -44.91849393 40.52830803 C-44.85190078 28.22847989 -42.04197578 19.79230084 -33.45703125 10.96484375 C-23.37278562 1.42616813 -13.43203437 -0.08315919 0 0 Z " fill="#EB5F26" transform="translate(376.53125,223.90234375)"/>
<path d="M0 0 C0.10213068 7.32816549 0.17177002 14.65614477 0.21972656 21.98486328 C0.23973667 24.47353982 0.26695343 26.96216998 0.30175781 29.45068359 C0.35074344 33.04536444 0.37307583 36.63941913 0.390625 40.234375 C0.41127014 41.33174988 0.43191528 42.42912476 0.45318604 43.55975342 C0.45675193 56.0729558 -3.37789141 67.10760126 -12.10546875 76.19140625 C-22.34936908 85.76530966 -31.1491855 87.14942032 -44.84011841 87.14717102 C-46.04142611 87.15084771 -47.24273382 87.1545244 -48.48044479 87.1583125 C-51.8071994 87.167412 -55.13390479 87.17204299 -58.46066713 87.17470181 C-62.05183453 87.17861635 -65.64298779 87.18819375 -69.23414612 87.19691467 C-77.90214841 87.21664509 -86.5701518 87.22674024 -95.23817092 87.23564246 C-99.32401245 87.24003035 -103.40985269 87.2453958 -107.49569321 87.25063133 C-121.08403059 87.26763902 -134.67236719 87.28213268 -148.26071358 87.28938007 C-151.78416062 87.29128984 -155.30760767 87.29321019 -158.83105469 87.29516602 C-160.14459062 87.29589163 -160.14459062 87.29589163 -161.48466264 87.2966319 C-175.66700712 87.30493043 -189.84926722 87.33026642 -204.03157486 87.36274669 C-218.60446436 87.39584845 -233.17731101 87.41383159 -247.7502383 87.41702431 C-255.92749003 87.41918636 -264.10461864 87.42789032 -272.28183365 87.45348549 C-279.24631377 87.475235 -286.21064083 87.48322202 -293.17515106 87.47351871 C-296.7250662 87.46898646 -300.27466581 87.47079689 -303.82453728 87.49028015 C-307.68248071 87.51127038 -311.53999409 87.50088663 -315.39797974 87.48774719 C-317.06115413 87.50420106 -317.06115413 87.50420106 -318.75792801 87.52098733 C-331.225122 87.41888745 -341.06984235 83.72285042 -350 75 C-356.68297563 67.69769689 -361.13775464 58.7549123 -361.11352539 48.77246094 C-361.11340454 47.71720215 -361.11328369 46.66194336 -361.11315918 45.57470703 C-361.10804321 44.47239746 -361.10292725 43.37008789 -361.09765625 42.234375 C-361.09664917 41.21617676 -361.09564209 40.19797852 -361.09460449 39.14892578 C-361.09050099 36.16645469 -361.08118643 33.18403721 -361.07048416 30.20158386 C-361.05286324 24.79097578 -361.04176592 19.38034797 -361.02905273 13.96972656 C-361.02353361 11.68768306 -361.01799618 9.4056396 -361.01243591 7.12359619 C-361.01004127 6.13700138 -361.00764662 5.15040657 -361.00517941 4.13391495 C-361.0034702 3.42972301 -361.001761 2.72553108 -361 2 C-321.89858021 1.28318554 -282.79998956 0.75073968 -243.69268799 0.46757126 C-240.91123084 0.44742317 -238.12977794 0.42679152 -235.34832764 0.40571976 C-156.89991698 -0.18851509 -78.45007611 -0.09974418 0 0 Z " fill="#04587E" transform="translate(693,564)"/>
<path d="M0 0 C3.42328876 2.56628286 6.714207 5.26183916 10 8 C10.7528125 8.53109375 11.505625 9.0621875 12.28125 9.609375 C12.8484375 10.06828125 13.415625 10.5271875 14 11 C14 11.66 14 12.32 14 13 C14.58394531 13.24363281 15.16789063 13.48726562 15.76953125 13.73828125 C31.34339244 22.54801359 41.37401059 51.27469814 45.85620117 67.38037109 C49.64349418 81.68792247 51.35739121 96.31708876 53 111 C53.12004395 112.06831055 53.24008789 113.13662109 53.36376953 114.23730469 C54.64945205 126.15142377 55.26093675 138.08294725 55.5 150.0625 C55.54286133 151.24666504 55.58572266 152.43083008 55.62988281 153.65087891 C55.67156023 159.00025227 55.70168923 162.92752096 52.21875 167.18359375 C48.45426509 170.97625236 44.93499412 172.30063033 39.625 172.375 C34.61035171 172.27484058 31.81474864 171.44257804 28 168 C23.42295313 162.80443328 22.83436639 159.57741965 22.71875 152.80078125 C22.69113586 151.55992012 22.69113586 151.55992012 22.66296387 150.29399109 C22.60414686 147.63356756 22.55152139 144.97307412 22.5 142.3125 C22.44803288 139.69835949 22.39453788 137.08428557 22.33703613 134.47026062 C22.30140362 132.84501476 22.26879147 131.219698 22.2401123 129.59431458 C22.07646866 122.02545088 21.50558217 114.5837326 21 107 C-29.82 107 -80.64 107 -133 107 C-133 111.29 -133 115.58 -133 120 C-133.21471411 126.33028407 -133.56013313 132.64625876 -133.95214844 138.96777344 C-134.06798337 140.9160254 -134.17236166 142.86499028 -134.265625 144.81445312 C-134.40303334 147.66758473 -134.57655057 150.51654589 -134.7578125 153.3671875 C-134.79246613 154.2308493 -134.82711975 155.09451111 -134.86282349 155.98434448 C-135.26280129 161.47584578 -136.59296689 164.56198461 -140.34054565 168.61209106 C-144.73970723 172.29139425 -148.74145151 172.42760084 -154.30859375 172.31640625 C-159.21689971 171.73937754 -161.80645385 169.22633588 -165.1328125 165.80859375 C-176.87721815 148.14284551 -161.91429946 95.02310721 -158.03515625 74.8515625 C-153.79492885 54.35029098 -144.75182284 34.8175473 -131 19 C-130.28457031 18.08734375 -130.28457031 18.08734375 -129.5546875 17.15625 C-115.64443914 -0.33091937 -95.13804113 -9.87144419 -74 -15 C-72.79150391 -15.30744141 -72.79150391 -15.30744141 -71.55859375 -15.62109375 C-46.69450921 -19.30325589 -20.81119274 -13.91293725 0 0 Z " fill="#055982" transform="translate(570,117)"/>
<path d="M0 0 C5.225081 4.75679544 8.58384759 10.25462827 9.375 17.375 C7.65679421 33.98432263 -6.89520613 46.05615721 -18.97265625 56.43359375 C-22.71045673 59.67959 -26.05238473 63.14940472 -29.375 66.8125 C-37.61600462 75.76287909 -46.25079501 84.3098143 -54.89990234 92.86254883 C-59.98435436 97.90175445 -64.9837549 102.95537358 -69.63085938 108.40820312 C-71.87218951 111.01402917 -74.34236715 113.36504414 -76.8125 115.75 C-78.70038177 117.69182125 -80.47647915 119.67377187 -82.25 121.71875 C-86.69594661 126.83775036 -91.36799867 131.73186067 -96.0390625 136.64453125 C-100.47841346 141.3324173 -104.76891681 146.12405075 -109 151 C-115.07446674 157.85899196 -120.2568331 162.28052634 -129.5546875 163.4453125 C-138.30975415 163.85047655 -144.32785102 162.79894828 -151 157 C-156.23181597 151.88191916 -160.80182358 146.2645506 -165.375 140.5625 C-169.20474683 135.80926811 -173.34544138 131.5372188 -177.6965332 127.27197266 C-181.03598749 123.99288604 -184.14117907 120.61126965 -187.16796875 117.046875 C-189.46521721 114.4802264 -191.91404254 112.09740025 -194.375 109.6875 C-199.68872147 104.4593809 -204.43412059 98.88879014 -209 93 C-209.79083984 91.99259766 -209.79083984 91.99259766 -210.59765625 90.96484375 C-215.98625321 83.81670492 -217.12113807 76.79573271 -216 68 C-213.58580697 61.68994183 -208.74231497 56.73860432 -202.62890625 53.8984375 C-195.99115105 51.62996247 -189.615587 52.32448534 -183.25 55.125 C-174.99148654 59.70836936 -168.63211431 66.38482235 -162 73 C-160.61255911 74.36851332 -159.22509149 75.73699975 -157.8369751 77.10482788 C-155.36491973 79.54345495 -152.9001872 81.98941633 -150.4375 84.4375 C-149.96242004 84.90953857 -149.48734009 85.38157715 -148.99786377 85.86791992 C-143.76966103 91.07416209 -138.70227532 96.31188992 -134 102 C-130.04120261 101.45133938 -128.24103729 99.6025644 -125.48046875 96.80859375 C-124.19366211 95.51405273 -124.19366211 95.51405273 -122.88085938 94.19335938 C-121.99205078 93.28392578 -121.10324219 92.37449219 -120.1875 91.4375 C-119.31029297 90.55513672 -118.43308594 89.67277344 -117.52929688 88.76367188 C-113.85389157 85.04428266 -110.2529482 81.3100896 -106.84667969 77.34228516 C-102.31230806 72.13019591 -97.42371549 67.27916291 -92.53515625 62.40234375 C-91.53284919 61.39936097 -90.53069044 60.39622997 -89.52867126 59.39295959 C-87.44008466 57.30290862 -85.34972612 55.21465112 -83.25805664 53.12768555 C-80.5976959 50.4730213 -77.94185158 47.81389116 -75.28733158 45.15338802 C-73.22233394 43.08475051 -71.15492796 41.01853301 -69.0868206 38.95300484 C-68.10743589 37.97427995 -67.12877319 36.99483194 -66.15089607 36.01460075 C-61.12090538 30.97515654 -56.04888016 26.06316091 -50.64524841 21.4250946 C-48.74616895 19.78013456 -46.9655195 18.05145675 -45.21875 16.24609375 C-44.60386719 15.61896484 -43.98898437 14.99183594 -43.35546875 14.34570312 C-42.11653577 13.07155837 -40.87955987 11.79550774 -39.64453125 10.51757812 C-28.44882986 -0.87762738 -15.6333633 -9.01924806 0 0 Z " fill="#055980" transform="translate(620,341)"/>
<path d="M0 0 C3.25862274 2.79621384 6.39806861 5.65519933 9.3125 8.8125 C9.97958984 9.47185547 9.97958984 9.47185547 10.66015625 10.14453125 C27.97918735 28.38724401 32.14898544 57.01383989 34.3125 80.8125 C-16.5075 80.8125 -67.3275 80.8125 -119.6875 80.8125 C-119.6875 74.24320648 -119.58708819 68.67741326 -118.375 62.375 C-118.23892334 61.64128174 -118.10284668 60.90756348 -117.96264648 60.15161133 C-116.8425529 54.27612332 -115.45315772 48.52945971 -113.6875 42.8125 C-113.40132813 41.83925781 -113.11515625 40.86601562 -112.8203125 39.86328125 C-106.08596248 18.1296971 -91.68703271 1.46442503 -71.6875 -9.1875 C-68.08146428 -10.81214443 -64.48778778 -12.09842809 -60.6875 -13.1875 C-59.92566406 -13.41179687 -59.16382813 -13.63609375 -58.37890625 -13.8671875 C-37.63438471 -18.97460764 -16.54498083 -13.01900131 0 0 Z " fill="#1670A4" transform="translate(557.6875,143.1875)"/>
<path d="M0 0 C8.7961835 6.3581109 14.06589049 15.74374153 16.1875 26.3125 C17.25383064 37.72223784 15.69882684 48.74277307 9.1328125 58.3046875 C1.29864261 67.4400344 -7.56332296 72.61872306 -19.62109375 73.6328125 C-31.72639435 74.13189576 -41.73877432 71.63648988 -50.8125 63.3125 C-58.87944632 55.49351309 -62.79388742 46.99828287 -63.10522461 35.74267578 C-63.2234808 23.45279151 -60.14219336 13.68140655 -51.8125 4.3125 C-36.92807825 -9.15312939 -16.94875996 -10.29543963 0 0 Z " fill="#EFC61A" transform="translate(440.8125,775.6875)"/>
<path d="M0 0 C8.25 0 16.5 0 25 0 C29.92215195 9.47970006 34.38861571 19.01475867 38.5 28.875 C38.94520996 29.93912109 39.39041992 31.00324219 39.84912109 32.09960938 C43 39.73885286 43 39.73885286 43 42 C43.66 42 44.32 42 45 42 C45.12221924 41.28392578 45.24443848 40.56785156 45.37036133 39.83007812 C46.01238205 36.94434559 46.93296946 34.44344901 48.07421875 31.71875 C48.70094482 30.21634766 48.70094482 30.21634766 49.34033203 28.68359375 C49.78489746 27.63300781 50.22946289 26.58242188 50.6875 25.5 C51.36208252 23.89318359 51.36208252 23.89318359 52.05029297 22.25390625 C55.21355383 14.75748913 58.50870768 7.35008909 62 0 C70.25 0 78.5 0 87 0 C87 24.42 87 48.84 87 74 C80.73 74 74.46 74 68 74 C67.505 53.21 67.505 53.21 67 32 C60.58006535 45.96335787 54.19719161 59.93645915 48 74 C45.36 74 42.72 74 40 74 C35.41492317 65.15349883 31.3031809 56.12466885 27.24609375 47.02734375 C24.85445507 41.67423248 22.42616078 36.33755372 20 31 C19.67 45.19 19.34 59.38 19 74 C12.73 74 6.46 74 0 74 C0 49.58 0 25.16 0 0 Z " fill="#F0C719" transform="translate(430,684)"/>
<path d="M0 0 C3.08500667 -0.09186112 6.16966036 -0.14781046 9.25561523 -0.19726562 C10.56578739 -0.23693451 10.56578739 -0.23693451 11.90242767 -0.27740479 C18.39353207 -0.35557473 18.39353207 -0.35557473 21.4914093 1.46072388 C23.10085199 3.38414801 24.06033509 5.20234156 25.0625 7.5 C25.90174473 9.06542546 26.74160336 10.63052193 27.58203125 12.1953125 C27.9785791 12.99614258 28.37512695 13.79697266 28.78369141 14.62207031 C30.69645251 18.36159123 32.9788128 21.84617043 35.25 25.375 C36.00732376 26.58982963 36.76255267 27.80596784 37.515625 29.0234375 C40.63720946 34.04083943 43.82157455 39.01849498 47 44 C47.02505615 42.70263916 47.0501123 41.40527832 47.07592773 40.06860352 C47.16981752 35.27341144 47.27008249 30.4783705 47.37231445 25.68334961 C47.41573334 23.60460943 47.45740312 21.52583197 47.49731445 19.44702148 C47.55484921 16.46586855 47.61859119 13.48490451 47.68359375 10.50390625 C47.70030624 9.56849503 47.71701874 8.6330838 47.73423767 7.66932678 C47.75418289 6.80850998 47.77412811 5.94769318 47.79467773 5.06079102 C47.81022202 4.29912125 47.8257663 3.53745148 47.84178162 2.75270081 C48 1 48 1 49 0 C50.33043625 -0.0983721 51.66593344 -0.13078592 53 -0.1328125 C53.804375 -0.13410156 54.60875 -0.13539063 55.4375 -0.13671875 C56.283125 -0.13285156 57.12875 -0.12898437 58 -0.125 C59.2684375 -0.13080078 59.2684375 -0.13080078 60.5625 -0.13671875 C61.366875 -0.13542969 62.17125 -0.13414062 63 -0.1328125 C63.7425 -0.13168457 64.485 -0.13055664 65.25 -0.12939453 C67 0 67 0 68 1 C68.10025695 3.36761575 68.13618935 5.70607073 68.12939453 8.07421875 C68.13202301 9.18393539 68.13202301 9.18393539 68.13470459 10.31607056 C68.1391231 12.77323723 68.13618513 15.23033253 68.1328125 17.6875 C68.13348554 19.38761407 68.13445557 21.08772805 68.13571167 22.7878418 C68.13718864 26.35564081 68.13503411 29.92341483 68.13037109 33.49121094 C68.1246738 38.07488494 68.12795281 42.65850039 68.13394356 47.24217224 C68.13754919 50.75419561 68.13641057 54.26620498 68.13381577 57.77822876 C68.1331465 59.46880093 68.13397489 61.15937436 68.13629532 62.84994507 C68.13882189 65.20859157 68.13498121 67.56714195 68.12939453 69.92578125 C68.13141876 70.63127106 68.13344299 71.33676086 68.13552856 72.06362915 C68.11426271 76.88573729 68.11426271 76.88573729 67 78 C52.67969073 79.66077985 52.67969073 79.66077985 47.66796875 76.5546875 C45.79006306 74.15133374 44.42359066 71.69954969 43 69 C42.26451758 67.80589877 41.5175886 66.61880136 40.76171875 65.4375 C39.04876297 62.76035135 37.36428641 60.06897694 35.703125 57.359375 C32.42520487 52.03820185 29.00696592 46.80941608 25.57910156 41.58398438 C25.14049805 40.91173828 24.70189453 40.23949219 24.25 39.546875 C23.86328125 38.95745117 23.4765625 38.36802734 23.078125 37.76074219 C21.9323553 35.88952591 20.97050932 33.96674222 20 32 C19.9845388 32.84231422 19.9845388 32.84231422 19.96876526 33.7016449 C19.86092315 39.52493466 19.74630792 45.34806264 19.62768555 51.17114258 C19.58426493 53.34688953 19.54259529 55.52267214 19.50268555 57.69848633 C19.44515498 60.81863168 19.38141177 63.93859633 19.31640625 67.05859375 C19.29969376 68.03775253 19.28298126 69.01691132 19.26576233 70.02574158 C19.24581711 70.92659988 19.22587189 71.82745819 19.20532227 72.75561523 C19.18977798 73.55281479 19.1742337 74.35001434 19.15821838 75.17137146 C19 77 19 77 18 78 C15.15664952 78.09986975 12.34302837 78.13877881 9.5 78.125 C8.70207031 78.12886719 7.90414062 78.13273438 7.08203125 78.13671875 C1.12660767 78.12660767 1.12660767 78.12660767 0 77 C-0.09496708 74.59651714 -0.12558862 72.22189018 -0.11352539 69.81811523 C-0.11367142 69.06694427 -0.11381744 68.31577332 -0.1139679 67.5418396 C-0.11326863 65.04739541 -0.10547564 62.55302497 -0.09765625 60.05859375 C-0.09579212 58.33366436 -0.09436819 56.60873443 -0.09336853 54.88380432 C-0.08954297 50.33487497 -0.07971238 45.78597733 -0.06866455 41.23706055 C-0.05845124 36.59879994 -0.05387108 31.96053423 -0.04882812 27.32226562 C-0.03809014 18.21482978 -0.02101327 9.10741752 0 0 Z " fill="#EEC61A" transform="translate(637,771)"/>
<path d="M0 0 C11.49972929 -0.48040645 22.6470398 2.51814567 31.4296875 10.1875 C36.4839019 15.33788338 37.77844471 19.09783413 38.4296875 26.1875 C35.55308924 26.3231886 32.68295287 26.42190753 29.8046875 26.5 C28.99644531 26.54189453 28.18820312 26.58378906 27.35546875 26.62695312 C23.11845451 26.7130713 20.38915988 26.61656884 17.09375 23.79296875 C15.77503906 22.50326172 15.77503906 22.50326172 14.4296875 21.1875 C9.36171514 17.90528956 3.22149999 18.50936664 -2.5703125 19.1875 C-8.5617232 21.46367173 -12.86101293 25.65123168 -15.6484375 31.41796875 C-17.8021801 37.88832258 -17.81573779 46.35383618 -15.1328125 52.6875 C-12.32782585 57.22239131 -8.4814525 60.18504113 -3.5703125 62.1875 C3.21846419 63.36109171 9.15238915 62.4628137 15.39453125 59.6484375 C18.30439864 57.55958835 20.21485944 54.99936867 22.4296875 52.1875 C21.73818604 52.16244385 21.04668457 52.1373877 20.33422852 52.11157227 C17.22000884 51.99597839 14.10611961 51.87308758 10.9921875 51.75 C9.90357422 51.71068359 8.81496094 51.67136719 7.69335938 51.63085938 C6.14165039 51.56801758 6.14165039 51.56801758 4.55859375 51.50390625 C3.60025635 51.46724854 2.64191895 51.43059082 1.65454102 51.39282227 C-0.5703125 51.1875 -0.5703125 51.1875 -1.5703125 50.1875 C-1.66940552 47.85589945 -1.70001754 45.52120058 -1.6953125 43.1875 C-1.69917969 41.269375 -1.69917969 41.269375 -1.703125 39.3125 C-1.5703125 36.1875 -1.5703125 36.1875 -0.5703125 35.1875 C2.44776813 35.086363 5.44249263 35.04781091 8.4609375 35.0546875 C9.36718872 35.05373077 10.27343994 35.05277405 11.20715332 35.05178833 C13.12719797 35.05110647 15.04724491 35.05296118 16.96728516 35.05712891 C19.91704454 35.06247708 22.86665164 35.05718412 25.81640625 35.05078125 C27.67708367 35.05144203 29.537761 35.05272319 31.3984375 35.0546875 C32.28696411 35.05266327 33.17549072 35.05063904 34.09094238 35.04855347 C40.31473762 35.07255012 40.31473762 35.07255012 41.4296875 36.1875 C42.44419243 47.99567215 40.71904553 58.032458 33.125 67.34375 C25.33564386 75.8151235 17.76378727 80.67402466 6.1328125 81.390625 C-6.85247702 81.5668959 -15.97331955 78.97542691 -25.734375 70.25390625 C-33.47108182 62.35782906 -37.00549707 53.02797434 -37.0703125 42.0625 C-36.80569268 30.31477288 -33.69192855 20.07431806 -25.7890625 11.18359375 C-18.59109125 4.35437102 -9.80112727 0.71497585 0 0 Z " fill="#EFC71A" transform="translate(752.5703125,768.8125)"/>
<path d="M0 0 C0.74886475 0.00523682 1.49772949 0.01047363 2.26928711 0.01586914 C3.36188843 0.01961548 3.36188843 0.01961548 4.4765625 0.0234375 C5.40718506 0.0325415 6.33780762 0.04164551 7.29663086 0.05102539 C11.72069336 0.08196289 11.72069336 0.08196289 16.23413086 0.11352539 C16.23413086 10.01352539 16.23413086 19.91352539 16.23413086 30.11352539 C25.47413086 30.11352539 34.71413086 30.11352539 44.23413086 30.11352539 C44.2225293 28.03168945 44.21092773 25.94985352 44.19897461 23.80493164 C44.1920235 21.79606241 44.18510697 19.78719288 44.17919922 17.77832031 C44.17416006 16.37857311 44.16732869 14.97883119 44.15869141 13.57910156 C44.14660766 11.57106762 44.14143279 9.56299582 44.13647461 7.55493164 C44.13123779 6.34522705 44.12600098 5.13552246 44.12060547 3.88916016 C44.23413086 1.11352539 44.23413086 1.11352539 45.23413086 0.11352539 C46.56456711 0.01515329 47.9000643 -0.01726053 49.23413086 -0.01928711 C50.03850586 -0.02057617 50.84288086 -0.02186523 51.67163086 -0.02319336 C52.51725586 -0.01932617 53.36288086 -0.01545898 54.23413086 -0.01147461 C55.50256836 -0.01727539 55.50256836 -0.01727539 56.79663086 -0.02319336 C57.60100586 -0.0219043 58.40538086 -0.02061523 59.23413086 -0.01928711 C59.97663086 -0.01815918 60.71913086 -0.01703125 61.48413086 -0.01586914 C63.23413086 0.11352539 63.23413086 0.11352539 64.23413086 1.11352539 C64.33438781 3.48114114 64.37032021 5.81959612 64.36352539 8.18774414 C64.36615387 9.29746078 64.36615387 9.29746078 64.36883545 10.42959595 C64.37325396 12.88676262 64.37031599 15.34385792 64.36694336 17.80102539 C64.3676164 19.50113946 64.36858642 21.20125344 64.36984253 22.90136719 C64.3713195 26.4691662 64.36916497 30.03694022 64.36450195 33.60473633 C64.35880466 38.18841033 64.36208367 42.77202578 64.36807442 47.35569763 C64.37168005 50.867721 64.37054143 54.37973038 64.36794662 57.89175415 C64.36727736 59.58232632 64.36810575 61.27289975 64.37042618 62.96347046 C64.37295275 65.32211696 64.36911207 67.68066734 64.36352539 70.03930664 C64.36554962 70.74479645 64.36757385 71.45028625 64.36965942 72.17715454 C64.34839357 76.99926268 64.34839357 76.99926268 63.23413086 78.11352539 C61.90369461 78.21189749 60.56819742 78.24431131 59.23413086 78.24633789 C58.42975586 78.24762695 57.62538086 78.24891602 56.79663086 78.25024414 C55.95100586 78.24637695 55.10538086 78.24250977 54.23413086 78.23852539 C53.38850586 78.24239258 52.54288086 78.24625977 51.67163086 78.25024414 C50.86725586 78.24895508 50.06288086 78.24766602 49.23413086 78.24633789 C48.49163086 78.24520996 47.74913086 78.24408203 46.98413086 78.24291992 C45.23413086 78.11352539 45.23413086 78.11352539 44.23413086 77.11352539 C44.14637481 74.96793712 44.12717867 72.81948118 44.13647461 70.67211914 C44.13969727 69.36694336 44.14291992 68.06176758 44.14624023 66.71704102 C44.15459685 65.32836849 44.16306181 63.93969662 44.17163086 62.55102539 C44.1766442 61.15844883 44.18120739 59.76587058 44.18530273 58.37329102 C44.19713644 54.95335088 44.21507255 51.53343289 44.23413086 48.11352539 C34.99413086 48.11352539 25.75413086 48.11352539 16.23413086 48.11352539 C16.23413086 58.01352539 16.23413086 67.91352539 16.23413086 78.11352539 C9.96413086 78.11352539 3.69413086 78.11352539 -2.76586914 78.11352539 C-2.78842075 68.09124374 -2.80678457 58.06897882 -2.81768131 48.04667759 C-2.82291 43.39341353 -2.83000737 38.74016765 -2.84130859 34.08691406 C-2.852138 29.60007993 -2.85814609 25.11326335 -2.86074638 20.62641716 C-2.86260054 18.91072246 -2.86622096 17.19502878 -2.8715992 15.47934151 C-2.87881035 13.08467626 -2.87986005 10.69008443 -2.87939453 8.29541016 C-2.88298981 7.57899857 -2.88658508 6.86258698 -2.89028931 6.12446594 C-2.8777139 0.18500442 -2.8777139 0.18500442 0 0 Z " fill="#F0C718" transform="translate(303.765869140625,770.886474609375)"/>
<path d="M0 0 C6.22875 -0.0825 12.4575 -0.165 18.875 -0.25 C21.79255127 -0.30462402 21.79255127 -0.30462402 24.76904297 -0.36035156 C41.22917821 -0.53901626 41.22917821 -0.53901626 49 4 C49.928125 4.53625 50.85625 5.0725 51.8125 5.625 C58.03040859 12.37587218 59.64026871 19.21175661 59.45727539 28.23071289 C59.10020801 35.69529112 57.40687671 41.59312329 52 47 C42.46425738 54.56984307 31.80876091 55.50689435 20 55 C20.00785522 55.94637329 20.00785522 55.94637329 20.01586914 56.91186523 C20.03657826 59.75373347 20.04964066 62.59558588 20.0625 65.4375 C20.07087891 66.43072266 20.07925781 67.42394531 20.08789062 68.44726562 C20.09272461 69.86362305 20.09272461 69.86362305 20.09765625 71.30859375 C20.10551147 72.62041626 20.10551147 72.62041626 20.11352539 73.95874023 C20 76 20 76 19 77 C12.73 77 6.46 77 0 77 C0 51.59 0 26.18 0 0 Z " fill="#E66121" transform="translate(491,860)"/>
<path d="M0 0 C42.73333333 0 42.73333333 0 51.9375 5.875 C58.76329893 12.90764132 59.34435497 19.12195261 59.38500977 28.49536133 C59.22466606 36.61048645 56.64764612 41.69859165 50.8125 47.3125 C43.5536094 53.03066327 34.76498919 55.16225263 25.6875 55.0625 C23.810625 55.041875 21.93375 55.02125 20 55 C20 62.26 20 69.52 20 77 C13.4 77 6.8 77 0 77 C0 51.59 0 26.18 0 0 Z " fill="#EEC61A" transform="translate(466,771)"/>
<path d="M0 0 C1.86520042 -0.02462311 1.86520042 -0.02462311 3.76808167 -0.04974365 C4.56832984 -0.06034946 5.36857801 -0.07095528 6.19307613 -0.08188248 C7.94067423 -0.10486891 9.68827679 -0.12751766 11.43588352 -0.14983749 C15.0361559 -0.19615419 18.63610197 -0.24436728 22.23605347 -0.31164551 C24.6875948 -0.35716643 27.1379498 -0.37758787 29.58984375 -0.390625 C30.38588013 -0.41108887 31.1819165 -0.43155273 32.0020752 -0.45263672 C40.89974691 -0.45807622 47.94386317 3.10203731 54.3359375 9.17578125 C59.82471851 15.19282522 59.47081012 21.48894138 59.27734375 29.3359375 C58.70293322 36.92462872 56.85458114 42.22346832 51.1640625 47.4296875 C43.50292623 52.98885136 35.52441511 55.15681227 26.1875 55.0625 C25.02605469 55.05347656 23.86460937 55.04445313 22.66796875 55.03515625 C21.78753906 55.02355469 20.90710938 55.01195312 20 55 C20.00785522 55.94637329 20.00785522 55.94637329 20.01586914 56.91186523 C20.03657826 59.75373347 20.04964066 62.59558588 20.0625 65.4375 C20.07087891 66.43072266 20.07925781 67.42394531 20.08789062 68.44726562 C20.09272461 69.86362305 20.09272461 69.86362305 20.09765625 71.30859375 C20.10551147 72.62041626 20.10551147 72.62041626 20.11352539 73.95874023 C20 76 20 76 19 77 C17.66956375 77.0983721 16.33406656 77.13078592 15 77.1328125 C14.195625 77.13410156 13.39125 77.13539063 12.5625 77.13671875 C11.716875 77.13285156 10.87125 77.12898437 10 77.125 C9.154375 77.12886719 8.30875 77.13273438 7.4375 77.13671875 C6.633125 77.13542969 5.82875 77.13414062 5 77.1328125 C4.2575 77.13168457 3.515 77.13055664 2.75 77.12939453 C1 77 1 77 0 76 C-0.09494733 73.62699131 -0.12559319 71.28321297 -0.11352539 68.90991211 C-0.11367142 68.16849472 -0.11381744 67.42707733 -0.1139679 66.66319275 C-0.11326865 64.20121379 -0.10547574 61.73930957 -0.09765625 59.27734375 C-0.09579211 57.57483461 -0.09436819 55.87232493 -0.09336853 54.16981506 C-0.08954302 49.68006927 -0.07971247 45.19035562 -0.06866455 40.70062256 C-0.05845113 36.12268509 -0.05387106 31.54474244 -0.04882812 26.96679688 C-0.03809022 17.97785043 -0.02101341 8.98892788 0 0 Z " fill="#E56122" transform="translate(559,860)"/>
<path d="M0 0 C44.00879765 0 44.00879765 0 53.5625 8.14453125 C57.84426461 13.67126546 58.52809153 19.10988163 58.4375 25.875 C58.42920166 26.6700293 58.42090332 27.46505859 58.41235352 28.28417969 C58.18578696 36.14386219 56.63926375 41.79740035 50.8125 47.3125 C43.16624714 53.23217963 35.21624153 55.15155366 25.6875 55.0625 C24.43324219 55.05347656 23.17898438 55.04445313 21.88671875 55.03515625 C20.93410156 55.02355469 19.98148438 55.01195312 19 55 C19.00785522 55.99181274 19.00785522 55.99181274 19.01586914 57.00366211 C19.03657656 59.98159851 19.04964012 62.95951982 19.0625 65.9375 C19.07087891 66.97841797 19.07925781 68.01933594 19.08789062 69.09179688 C19.09272461 70.57583008 19.09272461 70.57583008 19.09765625 72.08984375 C19.10551147 73.46450806 19.10551147 73.46450806 19.11352539 74.86694336 C19 77 19 77 18 78 C12.06 78 6.12 78 0 78 C0 52.26 0 26.52 0 0 Z " fill="#F0C719" transform="translate(535,771)"/>
<path d="M0 0 C1.58206057 0.00667536 3.16410534 0.0186375 4.74609375 0.03515625 C5.55240234 0.03966797 6.35871094 0.04417969 7.18945312 0.04882812 C9.18753131 0.06065107 11.18557158 0.07858711 13.18359375 0.09765625 C16.84593952 7.95277764 20.18351661 15.90185276 23.37890625 23.95703125 C23.85302948 25.14564758 24.32715271 26.33426392 24.81564331 27.55889893 C26.06242053 30.68548751 27.30703857 33.81291575 28.55041504 36.94085693 C30.30542379 41.35465732 32.06400652 45.7670337 33.82296753 50.17926025 C34.75566633 52.51943135 35.68729836 54.86002799 36.6177063 57.20111084 C37.25384354 58.79877289 37.25384354 58.79877289 37.90283203 60.42871094 C38.29649963 61.41850952 38.69016724 62.40830811 39.09576416 63.42810059 C40.01489798 65.68367345 40.9854189 67.90077685 41.99169922 70.11816406 C43.18359375 73.09765625 43.18359375 73.09765625 43.18359375 77.09765625 C36.25359375 77.09765625 29.32359375 77.09765625 22.18359375 77.09765625 C20.53359375 73.13765625 18.88359375 69.17765625 17.18359375 65.09765625 C8.93359375 64.76765625 0.68359375 64.43765625 -7.81640625 64.09765625 C-8.80640625 67.39765625 -9.79640625 70.69765625 -10.81640625 74.09765625 C-11.47640625 75.08765625 -12.13640625 76.07765625 -12.81640625 77.09765625 C-14.97119141 77.43823242 -14.97119141 77.43823242 -17.60546875 77.390625 C-18.54648437 77.38095703 -19.4875 77.37128906 -20.45703125 77.36132812 C-21.441875 77.33619141 -22.42671875 77.31105469 -23.44140625 77.28515625 C-24.93027344 77.26485352 -24.93027344 77.26485352 -26.44921875 77.24414062 C-28.90548697 77.20871368 -31.3606791 77.15931821 -33.81640625 77.09765625 C-33.23276671 72.90715535 -32.26106441 69.26404786 -30.69921875 65.3359375 C-30.26246826 64.23016357 -29.82571777 63.12438965 -29.37573242 61.98510742 C-28.90240479 60.80537354 -28.42907715 59.62563965 -27.94140625 58.41015625 C-27.44793586 57.16852967 -26.9548596 55.92674639 -26.4621582 54.68481445 C-22.13481878 43.80118557 -17.71315414 32.95536685 -13.2734375 22.1171875 C-10.74512226 15.94019673 -8.27727653 9.74068397 -5.83984375 3.52734375 C-4.40149069 0.1126277 -4.40149069 0.1126277 0 0 Z " fill="#E46122" transform="translate(440.81640625,859.90234375)"/>
<path d="M0 0 C4.32165308 3.33697263 7.47630339 7.37752953 8.9765625 12.6796875 C9.03724263 15.01223168 9.04672731 17.34740936 8.9765625 19.6796875 C6.58042124 19.73393976 4.18552397 19.77347777 1.7890625 19.8046875 C1.11552734 19.82144531 0.44199219 19.83820312 -0.25195312 19.85546875 C-4.29456289 19.89490885 -7.44869518 19.62834998 -11.0234375 17.6796875 C-11.6009375 16.8134375 -12.1784375 15.9471875 -12.7734375 15.0546875 C-15.36900847 12.31491814 -15.96782814 12.28489908 -19.5859375 12.1796875 C-22.34089506 12.21685388 -23.58830714 12.33703451 -25.76953125 14.0546875 C-27.21593326 15.68065048 -27.21593326 15.68065048 -27.5234375 18.1796875 C-27.27948543 20.843678 -27.27948543 20.843678 -24.97265625 22.21875 C-21.51697029 23.93057324 -18.07677572 24.75090025 -14.3359375 25.5546875 C-4.87559145 27.77392746 3.30314778 30.34685963 8.9765625 38.6796875 C12.16509202 43.91069144 11.6233867 49.76975692 10.9765625 55.6796875 C8.5460861 63.86417546 3.39469534 69.53222444 -3.90625 73.7734375 C-12.13816048 77.2598937 -23.67546581 77.15975346 -32.19921875 74.80078125 C-38.80092238 71.76540007 -43.37826673 67.26915101 -46.3984375 60.6796875 C-47.10617277 57.2825582 -47.06426014 54.141447 -47.0234375 50.6796875 C-44.25202033 50.59879208 -41.48295931 50.53924688 -38.7109375 50.4921875 C-37.53241211 50.45448242 -37.53241211 50.45448242 -36.33007812 50.41601562 C-35.57275391 50.40634766 -34.81542969 50.39667969 -34.03515625 50.38671875 C-32.99041138 50.36315308 -32.99041138 50.36315308 -31.92456055 50.33911133 C-28.4315926 50.96485812 -26.98176096 53.73362185 -24.8984375 56.4296875 C-21.69787539 58.93447523 -21.21944331 58.96408098 -17.3984375 58.5546875 C-14.80271391 58.12059038 -12.53076856 57.51546452 -10.0234375 56.6796875 C-10.0234375 53.0496875 -10.0234375 49.4196875 -10.0234375 45.6796875 C-11.58191406 45.29876953 -11.58191406 45.29876953 -13.171875 44.91015625 C-16.79317228 44.02124888 -20.40644133 43.10271538 -24.01904297 42.17919922 C-25.67137401 41.76742464 -27.33280567 41.39234915 -28.99609375 41.02734375 C-36.26892263 39.26388445 -42.01205364 35.1149845 -46.24609375 28.87890625 C-48.29461637 23.08333724 -48.14379641 14.94573379 -46.1484375 9.12890625 C-42.45365689 2.8696562 -36.48960423 -2.5817914 -29.515625 -4.84765625 C-18.91526798 -6.85806879 -9.06452049 -5.91468711 0 0 Z " fill="#EFC719" transform="translate(279.0234375,774.3203125)"/>
<path d="M0 0 C18.55289981 -1.62066723 18.55289981 -1.62066723 23.671875 1.76953125 C25.47251737 4.42333513 26.71218891 7.06334408 28 10 C29.4161652 12.37400048 30.93489412 14.68003365 32.4375 17 C36 22.73244782 36 22.73244782 36 25 C36.66 25 37.32 25 38 25 C38.2165625 24.36449219 38.433125 23.72898437 38.65625 23.07421875 C40.54945966 18.74295131 43.01900629 14.82888904 45.5 10.8125 C45.99886719 9.99330078 46.49773438 9.17410156 47.01171875 8.33007812 C50.7366238 2.2633762 50.7366238 2.2633762 53 0 C55.06298828 -0.22705078 55.06298828 -0.22705078 57.5703125 -0.1953125 C58.91416016 -0.18564453 58.91416016 -0.18564453 60.28515625 -0.17578125 C61.69087891 -0.15064453 61.69087891 -0.15064453 63.125 -0.125 C64.06988281 -0.11597656 65.01476562 -0.10695313 65.98828125 -0.09765625 C68.32577292 -0.07404522 70.66276123 -0.04111516 73 0 C72.52397348 5.5168073 70.47529977 8.94606402 67.5 13.4375 C66.58855917 14.85203771 65.67843342 16.26742351 64.76953125 17.68359375 C64.30756348 18.3988623 63.8455957 19.11413086 63.36962891 19.85107422 C61.23968908 23.19291564 59.21107523 26.59303991 57.1875 30 C56.4941146 31.16703824 55.80012179 32.33371585 55.10546875 33.5 C54.77111816 34.07741943 54.43676758 34.65483887 54.09228516 35.24975586 C53 37 53 37 51.65380859 38.68969727 C46.76052708 45.1759575 47.25772331 52.07903181 47.25 59.9375 C47.2215759 62.5717824 47.18075932 65.2056948 47.140625 67.83984375 C47.13579102 68.99863037 47.13095703 70.15741699 47.12597656 71.35131836 C47 74 47 74 46 75 C44.66956375 75.0983721 43.33406656 75.13078592 42 75.1328125 C41.195625 75.13410156 40.39125 75.13539063 39.5625 75.13671875 C38.716875 75.13285156 37.87125 75.12898437 37 75.125 C36.154375 75.12886719 35.30875 75.13273438 34.4375 75.13671875 C33.633125 75.13542969 32.82875 75.13414062 32 75.1328125 C31.2575 75.13168457 30.515 75.13055664 29.75 75.12939453 C28 75 28 75 27 74 C27.00076034 72.09838066 27.05925856 70.19675294 27.140625 68.296875 C27.51466073 51.13740876 25.32653909 40.515455 14.87548828 26.57519531 C11.55030255 22.00944954 8.64434875 17.18379585 5.6875 12.375 C5.11870117 11.47910156 4.54990234 10.58320312 3.96386719 9.66015625 C3.18317871 8.41685547 3.18317871 8.41685547 2.38671875 7.1484375 C1.92483154 6.41802246 1.46294434 5.68760742 0.98706055 4.93505859 C0 3 0 3 0 0 Z " fill="#F0C818" transform="translate(523,684)"/>
<path d="M0 0 C4.85418285 3.39061013 9.17175824 8.0507365 11.33203125 13.62890625 C12.24749522 22.7241002 11.58971953 29.5759571 5.95703125 36.87890625 C0.95685169 42.11718959 -4.73360253 44.66413485 -11.98046875 44.94140625 C-19.92463258 44.70148184 -26.15185342 42.19633097 -31.9375 36.7109375 C-36.32604344 31.43081639 -38.49319852 24.77593902 -38.10546875 17.91796875 C-36.5771849 9.92176933 -32.43151747 4.56549458 -25.85546875 -0.03125 C-17.42099814 -5.19736325 -8.49900539 -4.69787542 0 0 Z " fill="#E65E23" transform="translate(524.66796875,588.37109375)"/>
<path d="M0 0 C3.14581423 -0.02888514 6.29159469 -0.04675923 9.4375 -0.0625 C10.33533203 -0.07087891 11.23316406 -0.07925781 12.15820312 -0.08789062 C13.01220703 -0.09111328 13.86621094 -0.09433594 14.74609375 -0.09765625 C15.93223267 -0.10551147 15.93223267 -0.10551147 17.14233398 -0.11352539 C19 0 19 0 20 1 C20.10025695 3.36761575 20.13618935 5.70607073 20.12939453 8.07421875 C20.13114685 8.81402985 20.13289917 9.55384094 20.13470459 10.31607056 C20.1391231 12.77323723 20.13618513 15.23033253 20.1328125 17.6875 C20.13348554 19.38761407 20.13445557 21.08772805 20.13571167 22.7878418 C20.13718864 26.35564081 20.13503411 29.92341483 20.13037109 33.49121094 C20.1246738 38.07488494 20.12795281 42.65850039 20.13394356 47.24217224 C20.13754919 50.75419561 20.13641057 54.26620498 20.13381577 57.77822876 C20.1331465 59.46880093 20.13397489 61.15937436 20.13629532 62.84994507 C20.13882189 65.20859157 20.13498121 67.56714195 20.12939453 69.92578125 C20.13141876 70.63127106 20.13344299 71.33676086 20.13552856 72.06362915 C20.11426271 76.88573729 20.11426271 76.88573729 19 78 C17.66956375 78.0983721 16.33406656 78.13078592 15 78.1328125 C14.195625 78.13410156 13.39125 78.13539063 12.5625 78.13671875 C11.716875 78.13285156 10.87125 78.12898437 10 78.125 C9.154375 78.12886719 8.30875 78.13273438 7.4375 78.13671875 C6.633125 78.13542969 5.82875 78.13414062 5 78.1328125 C4.2575 78.13168457 3.515 78.13055664 2.75 78.12939453 C1 78 1 78 0 77 C-0.09496708 74.59651714 -0.12558862 72.22189018 -0.11352539 69.81811523 C-0.11367142 69.06694427 -0.11381744 68.31577332 -0.1139679 67.5418396 C-0.11326863 65.04739541 -0.10547564 62.55302497 -0.09765625 60.05859375 C-0.09579212 58.33366436 -0.09436819 56.60873443 -0.09336853 54.88380432 C-0.08954297 50.33487497 -0.07971238 45.78597733 -0.06866455 41.23706055 C-0.05845124 36.59879994 -0.05387108 31.96053423 -0.04882812 27.32226562 C-0.03809014 18.21482978 -0.02101327 9.10741752 0 0 Z " fill="#F1C718" transform="translate(603,771)"/>
<path d="M0 0 C5.37692089 3.11817338 8.69546044 7.45097503 10.625 13.375 C11.43094257 21.2188829 11.72171889 28.96684467 6.625 35.375 C1.87055248 40.39984264 -2.61758616 43.36204629 -9.625 43.75 C-15.69766754 43.5681231 -20.96814421 41.88277218 -25.23828125 37.43359375 C-31.02130349 29.93912818 -31.20994892 22.56903521 -30.375 13.375 C-28.33212708 7.38379422 -23.52107115 2.89920513 -18.375 -0.625 C-12.44146813 -2.60284396 -5.73646881 -2.63331235 0 0 Z " fill="#146A9E" transform="translate(427.375,788.625)"/>
<path d="M0 0 C0.33 0 0.66 0 1 0 C1.495 37.62 1.495 37.62 2 76 C8.27 76 14.54 76 21 76 C21.33 68.41 21.66 60.82 22 53 C22.33 53 22.66 53 23 53 C23.02886984 56.97915159 23.04675406 60.95827653 23.0625 64.9375 C23.07087891 66.07380859 23.07925781 67.21011719 23.08789062 68.38085938 C23.09111328 69.46044922 23.09433594 70.54003906 23.09765625 71.65234375 C23.10289307 72.65257568 23.10812988 73.65280762 23.11352539 74.68334961 C23 77 23 77 22 78 C20.45044441 78.09899523 18.89646327 78.13079524 17.34375 78.1328125 C15.93416016 78.13474609 15.93416016 78.13474609 14.49609375 78.13671875 C13.01302734 78.13091797 13.01302734 78.13091797 11.5 78.125 C10.51128906 78.12886719 9.52257812 78.13273438 8.50390625 78.13671875 C7.09431641 78.13478516 7.09431641 78.13478516 5.65625 78.1328125 C4.78806641 78.13168457 3.91988281 78.13055664 3.02539062 78.12939453 C1 78 1 78 0 77 C-0.15714654 75.36743242 -0.25085414 73.72864662 -0.31640625 72.08984375 C-0.35830078 71.10048828 -0.40019531 70.11113281 -0.44335938 69.09179688 C-0.48267578 68.05087891 -0.52199219 67.00996094 -0.5625 65.9375 C-0.60568359 64.89271484 -0.64886719 63.84792969 -0.69335938 62.77148438 C-0.79981225 60.18113116 -0.9018276 57.59067814 -1 55 C-1.66 55.66 -2.32 56.32 -3 57 C-3.12375 56.360625 -3.2475 55.72125 -3.375 55.0625 C-3.58125 54.381875 -3.7875 53.70125 -4 53 C-4.66 52.67 -5.32 52.34 -6 52 C-6.66 54.31 -7.32 56.62 -8 59 C-8.33 59 -8.66 59 -9 59 C-9.01417969 58.0821875 -9.02835937 57.164375 -9.04296875 56.21875 C-9.34620736 48.41650247 -10.00091246 43.08451633 -15 37 C-15.598125 36.175 -16.19625 35.35 -16.8125 34.5 C-17.204375 34.005 -17.59625 33.51 -18 33 C-17.34 33 -16.68 33 -16 33 C-15.67 32.34 -15.34 31.68 -15 31 C-11.53846154 28 -11.53846154 28 -8 28 C-8 27.34 -8 26.68 -8 26 C-5.69 26.66 -3.38 27.32 -1 28 C-0.67 18.76 -0.34 9.52 0 0 Z " fill="#0C63A4" transform="translate(299,772)"/>
<path d="M0 0 C13.125 -0.53571429 13.125 -0.53571429 16.75 1.875 C19.61737329 4.58307477 19.93936212 5.35723852 20.3125 9.3125 C19.95124058 13.57536111 18.98007946 15.01992054 16 18 C11.53794887 20.23102556 4.78092876 19.04346299 0 19 C0 12.73 0 6.46 0 0 Z " fill="#156C9F" transform="translate(554,788)"/>
<path d="M0 0 C13.48539786 -0.40864842 13.48539786 -0.40864842 18 3 C19.75285351 6.50570701 19.52761628 10.17478195 19 14 C17.375 17.0625 17.375 17.0625 14 19 C9.25063605 19.40877878 4.7851261 19.22360402 0 19 C0 12.73 0 6.46 0 0 Z " fill="#146C9F" transform="translate(486,788)"/>
<path d="M0 0 C12.25039333 -0.49496539 12.25039333 -0.49496539 15.86328125 1.890625 C18.62246411 4.61449839 18.95507612 5.40475853 19.25 9.3125 C18.98667452 13.19655077 18.33593632 14.94531404 16 18 C11.53794887 20.23102556 4.78092876 19.04346299 0 19 C0 12.73 0 6.46 0 0 Z " fill="#116BA2" transform="translate(511,877)"/>
<path d="M0 0 C12.20224366 -0.49301995 12.20224366 -0.49301995 15.86328125 1.76953125 C18.60390119 4.63039777 18.88171742 6.22080412 19.14453125 10.03515625 C18.85370114 13.98887366 16.69331086 16.30668914 14 19 C9.32380812 19.28034724 4.68783389 19.08523334 0 19 C0 12.73 0 6.46 0 0 Z " fill="#116BA2" transform="translate(579,877)"/>
<path d="M0 0 C0.33 0 0.66 0 1 0 C1 25.08 1 50.16 1 76 C6.61 76 12.22 76 18 76 C17.98839844 74.10507812 17.97679687 72.21015625 17.96484375 70.2578125 C17.87142627 47.15887992 18.36384549 24.08936331 19 1 C19.33 1 19.66 1 20 1 C20.02312428 10.89189376 20.04091552 20.78378114 20.05181217 30.67569637 C20.05704082 35.2684264 20.06413812 39.861138 20.07543945 44.45385742 C20.086269 48.88233688 20.09227698 53.31079856 20.09487724 57.73929024 C20.09673137 59.43265628 20.10035175 61.12602129 20.10573006 62.81937981 C20.1129414 65.18291232 20.1139909 67.54637045 20.11352539 69.90991211 C20.11712067 70.61697296 20.12071594 71.32403381 20.12442017 72.05252075 C20.11405216 76.88594784 20.11405216 76.88594784 19 78 C17.66956375 78.0983721 16.33406656 78.13078592 15 78.1328125 C14.195625 78.13410156 13.39125 78.13539063 12.5625 78.13671875 C11.716875 78.13285156 10.87125 78.12898437 10 78.125 C9.154375 78.12886719 8.30875 78.13273438 7.4375 78.13671875 C6.633125 78.13542969 5.82875 78.13414062 5 78.1328125 C4.2575 78.13168457 3.515 78.13055664 2.75 78.12939453 C1 78 1 78 0 77 C-0.09496708 74.59651714 -0.12558862 72.22189018 -0.11352539 69.81811523 C-0.11367142 69.06694427 -0.11381744 68.31577332 -0.1139679 67.5418396 C-0.11326863 65.04739541 -0.10547564 62.55302497 -0.09765625 60.05859375 C-0.09579212 58.33366436 -0.09436819 56.60873443 -0.09336853 54.88380432 C-0.08954297 50.33487497 -0.07971238 45.78597733 -0.06866455 41.23706055 C-0.05845124 36.59879994 -0.05387108 31.96053423 -0.04882812 27.32226562 C-0.03809014 18.21482978 -0.02101327 9.10741752 0 0 Z " fill="#CEBB2B" transform="translate(603,771)"/>
<path d="M0 0 C1.67739258 0.07734375 1.67739258 0.07734375 3.38867188 0.15625 C4.55591797 0.22070312 5.72316406 0.28515625 6.92578125 0.3515625 C8.10462891 0.40828125 9.28347656 0.465 10.49804688 0.5234375 C13.41206477 0.66500922 16.32523382 0.81643192 19.23828125 0.9765625 C19.23828125 1.3065625 19.23828125 1.6365625 19.23828125 1.9765625 C10.98828125 1.9765625 2.73828125 1.9765625 -5.76171875 1.9765625 C-5.76171875 26.3965625 -5.76171875 50.8165625 -5.76171875 75.9765625 C-6.75171875 75.9765625 -7.74171875 75.9765625 -8.76171875 75.9765625 C-10.06701454 47.16533982 -10.06701454 47.16533982 -9.16381836 35.84033203 C-8.81742004 31.19891983 -8.74808473 26.60858143 -8.796875 21.953125 C-8.80968506 20.71965332 -8.82249512 19.48618164 -8.83569336 18.21533203 C-8.86926887 15.75516289 -8.91531592 13.29512701 -8.97485352 10.83544922 C-8.98959717 9.7167041 -9.00434082 8.59795898 -9.01953125 7.4453125 C-9.04160645 6.43919922 -9.06368164 5.43308594 -9.08642578 4.39648438 C-8.97927246 3.59791016 -8.87211914 2.79933594 -8.76171875 1.9765625 C-5.25886001 -0.35867666 -4.10541937 -0.20839692 0 0 Z " fill="#226F97" transform="translate(435.76171875,682.0234375)"/>
<path d="M0 0 C0.33 0 0.66 0 1 0 C1.02312428 9.89189376 1.04091552 19.78378114 1.05181217 29.67569637 C1.05704082 34.2684264 1.06413812 38.861138 1.07543945 43.45385742 C1.086269 47.88233688 1.09227698 52.31079856 1.09487724 56.73929024 C1.09673137 58.43265628 1.10035175 60.12602129 1.10573006 61.81937981 C1.1129414 64.18291232 1.1139909 66.54637045 1.11352539 68.90991211 C1.11712067 69.61697296 1.12071594 70.32403381 1.12442017 71.05252075 C1.11405216 75.88594784 1.11405216 75.88594784 0 77 C-1.33043625 77.0983721 -2.66593344 77.13078592 -4 77.1328125 C-4.804375 77.13410156 -5.60875 77.13539063 -6.4375 77.13671875 C-7.283125 77.13285156 -8.12875 77.12898437 -9 77.125 C-9.845625 77.12886719 -10.69125 77.13273438 -11.5625 77.13671875 C-12.366875 77.13542969 -13.17125 77.13414062 -14 77.1328125 C-14.7425 77.13168457 -15.485 77.13055664 -16.25 77.12939453 C-18 77 -18 77 -19 76 C-19.08775605 73.85441173 -19.10695219 71.70595579 -19.09765625 69.55859375 C-19.09443359 68.25341797 -19.09121094 66.94824219 -19.08789062 65.60351562 C-19.07953401 64.2148431 -19.07106905 62.82617123 -19.0625 61.4375 C-19.05748666 60.04492344 -19.05292347 58.65234519 -19.04882812 57.25976562 C-19.03699442 53.83982549 -19.01905831 50.4199075 -19 47 C-28.24 47 -37.48 47 -47 47 C-47 46.67 -47 46.34 -47 46 C-37.1 46 -27.2 46 -17 46 C-17 55.57 -17 65.14 -17 75 C-11.39 75 -5.78 75 0 75 C0 50.25 0 25.5 0 0 Z " fill="#C2B433" transform="translate(367,772)"/>
<path d="M0 0 C2 1 2 1 2.77783203 2.85766602 C3.01872559 3.64842529 3.25961914 4.43918457 3.5078125 5.25390625 C3.77207031 6.10791016 4.03632813 6.96191406 4.30859375 7.84179688 C4.57800781 8.73962891 4.84742188 9.63746094 5.125 10.5625 C5.40214844 11.46419922 5.67929687 12.36589844 5.96484375 13.29492188 C6.65008285 15.52785617 7.32592173 17.76367116 8 20 C3.38 20 -1.24 20 -6 20 C-4.63125844 13.04223041 -2.5466871 6.61396893 0 0 Z " fill="#1169A2" transform="translate(445,888)"/>
<path d="M0 0 C0.33 0 0.66 0 1 0 C1.04934399 5.94481181 1.08569282 11.88950509 1.10986328 17.83447266 C1.11993671 19.85793127 1.13359595 21.88137528 1.15087891 23.90478516 C1.17506847 26.80895589 1.18646949 29.71293461 1.1953125 32.6171875 C1.20563507 33.52556366 1.21595764 34.43393982 1.22659302 35.36984253 C1.22674408 36.21056305 1.22689514 37.05128357 1.22705078 37.91748047 C1.231492 38.65916473 1.23593323 39.400849 1.24050903 40.16500854 C1 42 1 42 -1 44 C-1.33 33.44 -1.66 22.88 -2 12 C-2.66 12 -3.32 12 -4 12 C-4.33 13.32 -4.66 14.64 -5 16 C-6.39211215 11.82366356 -4.9535579 10.21039485 -3.0625 6.3125 C-2.49660156 5.13300781 -1.93070312 3.95351563 -1.34765625 2.73828125 C-0.90292969 1.83464844 -0.45820313 0.93101562 0 0 Z " fill="#0B62AE" transform="translate(497,714)"/>
<path d="M0 0 C0.7734375 -0.01675781 1.546875 -0.03351562 2.34375 -0.05078125 C4.97015897 0.39171157 5.83557103 1.29064557 7.5 3.3125 C7.17 4.3025 6.84 5.2925 6.5 6.3125 C5.51 5.3225 4.52 4.3325 3.5 3.3125 C3.17386719 3.8178125 2.84773438 4.323125 2.51171875 4.84375 C2.07472656 5.4934375 1.63773437 6.143125 1.1875 6.8125 C0.75824219 7.4621875 0.32898438 8.111875 -0.11328125 8.78125 C-0.79970703 9.53921875 -0.79970703 9.53921875 -1.5 10.3125 C-2.49 10.3125 -3.48 10.3125 -4.5 10.3125 C-2.52 10.9725 -0.54 11.6325 1.5 12.3125 C-0.1875 13 -0.1875 13 -2.5 13.3125 C-4.74356294 12.16463059 -6.7095767 11.1029233 -8.5 9.3125 C-8.25 5.875 -8.25 5.875 -7.5 2.3125 C-4.40219052 0.24729368 -3.5459519 0.01772976 0 0 Z " fill="#0D62A5" transform="translate(259.5,785.6875)"/>
<path d="M0 0 C0.33 0 0.66 0 1 0 C1.33 8.58 1.66 17.16 2 26 C7.28 25.67 12.56 25.34 18 25 C18.33 16.75 18.66 8.5 19 0 C19.33 0 19.66 0 20 0 C20.02886338 4.47915328 20.04675187 8.95828291 20.0625 13.4375 C20.07087891 14.71689453 20.07925781 15.99628906 20.08789062 17.31445312 C20.09272461 19.13686523 20.09272461 19.13686523 20.09765625 20.99609375 C20.10551147 22.68496704 20.10551147 22.68496704 20.11352539 24.40795898 C20 27 20 27 19 28 C17.66956375 28.0983721 16.33406656 28.13078592 15 28.1328125 C14.195625 28.13410156 13.39125 28.13539063 12.5625 28.13671875 C11.716875 28.13285156 10.87125 28.12898437 10 28.125 C9.154375 28.12886719 8.30875 28.13273438 7.4375 28.13671875 C6.633125 28.13542969 5.82875 28.13414062 5 28.1328125 C4.2575 28.13168457 3.515 28.13055664 2.75 28.12939453 C1 28 1 28 0 27 C-0.08758003 25.00035018 -0.10696576 22.9976389 -0.09765625 20.99609375 C-0.09443359 19.78115234 -0.09121094 18.56621094 -0.08789062 17.31445312 C-0.07951172 16.03505859 -0.07113281 14.75566406 -0.0625 13.4375 C-0.05798828 12.15423828 -0.05347656 10.87097656 -0.04882812 9.54882812 C-0.03699545 6.36583978 -0.02051068 3.18294238 0 0 Z " fill="#B4B23C" transform="translate(550,731)"/>
<path d="M0 0 C13.125 -0.53571429 13.125 -0.53571429 16.8125 1.875 C17.534375 2.57625 18.25625 3.2775 19 4 C19 4.66 19 5.32 19 6 C18.34 6 17.68 6 17 6 C16.566875 5.505 16.13375 5.01 15.6875 4.5 C14.0691082 2.76707977 14.0691082 2.76707977 11.5625 2.75 C9.26976096 2.97368186 7.20497429 3.34667429 5 4 C5 3.01 5 2.02 5 1 C4.01 1 3.02 1 2 1 C2 6.61 2 12.22 2 18 C5.63 18 9.26 18 13 18 C13 18.33 13 18.66 13 19 C8.71 19 4.42 19 0 19 C0 12.73 0 6.46 0 0 Z " fill="#0F60AE" transform="translate(554,788)"/>
<path d="M0 0 C0.33 0.99 0.66 1.98 1 3 C2.134375 3.309375 3.26875 3.61875 4.4375 3.9375 C8 5 8 5 9.1875 6.875 C9.455625 7.57625 9.72375 8.2775 10 9 C11.7712618 11.35522225 11.7712618 11.35522225 14 13 C16.21858253 12.86358623 16.21858253 12.86358623 18 12 C17.34 13.32 16.68 14.64 16 16 C16.99 16.99 17.98 17.98 19 19 C19 18.34 19 17.68 19 17 C20.32 17 21.64 17 23 17 C22.01 20.3 21.02 23.6 20 27 C17.78233701 24.04311601 16.11594422 21.44682156 14.375 18.25 C11.10738195 12.70569568 6.91527915 9.05393499 2 5 C0.98666846 4.01351168 -0.01886297 3.01851368 -1 2 C-0.67 1.34 -0.34 0.68 0 0 Z " fill="#1272AD" transform="translate(673,225)"/>
<path d="M0 0 C3.96 0 7.92 0 12 0 C12 0.33 12 0.66 12 1 C8.7 1 5.4 1 2 1 C2 6.61 2 12.22 2 18 C8.435 17.505 8.435 17.505 15 17 C15 16.01 15 15.02 15 14 C15.66 14 16.32 14 17 14 C17.33 11.69 17.66 9.38 18 7 C18.33 7 18.66 7 19 7 C19.39348458 11.01354268 19.34629226 13.37401014 17.375 16.9375 C11.82249928 20.33069488 6.40756184 19.29941878 0 19 C0 12.73 0 6.46 0 0 Z " fill="#095DB6" transform="translate(486,788)"/>
<path d="M0 0 C0.33 0 0.66 0 1 0 C1 14.52 1 29.04 1 44 C-2.15170873 40.84829127 -4.35053135 37.6578118 -6.75 33.9375 C-7.17410156 33.30005859 -7.59820313 32.66261719 -8.03515625 32.00585938 C-9.08862735 30.3776117 -10.05231028 28.69200355 -11 27 C-10.67 26.34 -10.34 25.68 -10 25 C-9.59007812 25.63808594 -9.18015625 26.27617188 -8.7578125 26.93359375 C-8.21898437 27.75988281 -7.68015625 28.58617187 -7.125 29.4375 C-6.59132813 30.26121094 -6.05765625 31.08492187 -5.5078125 31.93359375 C-4.16165694 34.11038871 -4.16165694 34.11038871 -2 35 C-2 35.99 -2 36.98 -2 38 C-1.34 38 -0.68 38 0 38 C0 25.46 0 12.92 0 0 Z " fill="#0058BA" transform="translate(684,772)"/>
<path d="M0 0 C4.95 0 9.9 0 15 0 C15 0.33 15 0.66 15 1 C8.565 1.495 8.565 1.495 2 2 C2 8.6 2 15.2 2 22 C1.34 22.33 0.68 22.66 0 23 C0 15.41 0 7.82 0 0 Z " fill="#1864A7" transform="translate(554,826)"/>
<path d="M0 0 C0.33 0 0.66 0 1 0 C1 2.64 1 5.28 1 8 C0.01 8.33 -0.98 8.66 -2 9 C-1.95875 9.78375 -1.9175 10.5675 -1.875 11.375 C-2 14 -2 14 -4 16 C-4.66 17.32 -5.32 18.64 -6 20 C-6 14.39 -6 8.78 -6 3 C-5.01 3 -4.02 3 -3 3 C-2.01 2.67 -1.02 2.34 0 2 C0 1.34 0 0.68 0 0 Z " fill="#0D66A6" transform="translate(463,798)"/>
<path d="M0 0 C0.625 1.8125 0.625 1.8125 1 4 C0.01 5.485 0.01 5.485 -1 7 C-3.15478516 7.34057617 -3.15478516 7.34057617 -5.7890625 7.29296875 C-6.73007812 7.28330078 -7.67109375 7.27363281 -8.640625 7.26367188 C-9.62546875 7.23853516 -10.6103125 7.21339844 -11.625 7.1875 C-13.11386719 7.16719727 -13.11386719 7.16719727 -14.6328125 7.14648438 C-17.08908072 7.11105743 -19.54427285 7.06166196 -22 7 C-22 6.34 -22 5.68 -22 5 C-16.39 5 -10.78 5 -5 5 C-4.67 4.34 -4.34 3.68 -4 3 C-4 3.66 -4 4.32 -4 5 C-3.01 5 -2.02 5 -1 5 C-0.67 3.35 -0.34 1.7 0 0 Z " fill="#EE6319" transform="translate(429,930)"/>
<path d="M0 0 C0.98613281 0.04833984 1.97226562 0.09667969 2.98828125 0.14648438 C4.53708984 0.2305957 4.53708984 0.2305957 6.1171875 0.31640625 C7.15746094 0.36861328 8.19773437 0.42082031 9.26953125 0.47460938 C11.84403866 0.60451571 14.41818046 0.73948877 16.9921875 0.87890625 C16.9921875 1.20890625 16.9921875 1.53890625 16.9921875 1.87890625 C6.5971875 2.37390625 6.5971875 2.37390625 -4.0078125 2.87890625 C-4.3378125 4.52890625 -4.6678125 6.17890625 -5.0078125 7.87890625 C-5.9978125 8.53890625 -6.9878125 9.19890625 -8.0078125 9.87890625 C-8.3378125 7.56890625 -8.6678125 5.25890625 -9.0078125 2.87890625 C-8.3478125 2.87890625 -7.6878125 2.87890625 -7.0078125 2.87890625 C-7.0078125 2.21890625 -7.0078125 1.55890625 -7.0078125 0.87890625 C-4.45798817 -0.39600591 -2.84315826 -0.14705991 0 0 Z " fill="#1B6F97" transform="translate(527.0078125,680.12109375)"/>
<path d="M0 0 C2 2 2 2 2.265625 4.28515625 C2.17372442 20.62048477 2.17372442 20.62048477 -4 27 C-4.66 26.67 -5.32 26.34 -6 26 C-4.93788265 23.22215463 -3.79059809 20.58957226 -2.4375 17.9375 C-0.28529408 13.539514 0.12071787 10.1403011 0.0625 5.25 C0.04896484 3.77273438 0.04896484 3.77273438 0.03515625 2.265625 C0.02355469 1.51796875 0.01195312 0.7703125 0 0 Z " fill="#EF621C" transform="translate(628,351)"/>
<path d="M0 0 C1.32 0.33 2.64 0.66 4 1 C-1.61 6.61 -7.22 12.22 -13 18 C-13 16 -13 14 -13 12 C-12.34 12 -11.68 12 -11 12 C-10.34 11.34 -9.68 10.68 -9 10 C-7.22575781 8.53541328 -5.44459053 7.08015589 -3.65625 5.6328125 C-1.88074699 3.88243453 -0.98474777 2.27476734 0 0 Z " fill="#F76219" transform="translate(544,383)"/>
<path d="M0 0 C1.33333333 0.66666667 2.66666667 1.33333333 4 2 C4.66 2.268125 5.32 2.53625 6 2.8125 C8.6754635 4.40105645 10.17005731 6.51650636 12 9 C11.34 9 10.68 9 10 9 C10.33 11.31 10.66 13.62 11 16 C8.46136429 12.79330227 6.35208078 9.37980452 4.20703125 5.90625 C2.90633885 3.85208207 1.50911235 1.90624718 0 0 Z " fill="#0F62A6" transform="translate(278,773)"/>
<path d="M0 0 C5 6.66666667 5 6.66666667 5 11 C4.34 11 3.68 11 3 11 C2.67 10.34 2.34 9.68 2 9 C1.67 13.62 1.34 18.24 1 23 C0.67 23 0.34 23 0 23 C0 15.41 0 7.82 0 0 Z " fill="#1463AA" transform="translate(449,713)"/>
<path d="M0 0 C0.99 0.495 0.99 0.495 2 1 C2.33 1.99 2.66 2.98 3 4 C3.99 3.67 4.98 3.34 6 3 C7.125 9.625 7.125 9.625 6 13 C5.34 13 4.68 13 4 13 C3.32404685 11.58774074 2.65959941 10.16997095 2 8.75 C1.62875 7.96109375 1.2575 7.1721875 0.875 6.359375 C0 4 0 4 0 0 Z " fill="#1165A7" transform="translate(469,713)"/>
<path d="M0 0 C0 3.5210538 -0.78650616 4.65594267 -2.6875 7.5625 C-3.43580078 8.74005859 -3.43580078 8.74005859 -4.19921875 9.94140625 C-6.31703449 12.36242338 -7.93476829 13.10697974 -11 14 C-11.99 14 -12.98 14 -14 14 C-9.38 9.38 -4.76 4.76 0 0 Z " fill="#065B8E" transform="translate(585,347)"/>
<path d="M0 0 C6.93 0.495 6.93 0.495 14 1 C14 1.33 14 1.66 14 2 C13.38511719 2.03738281 12.77023438 2.07476563 12.13671875 2.11328125 C10.92435547 2.21189453 10.92435547 2.21189453 9.6875 2.3125 C8.88699219 2.37050781 8.08648437 2.42851563 7.26171875 2.48828125 C4.63727666 3.08206694 3.69179328 3.95780294 2 6 C2.33 6.99 2.66 7.98 3 9 C2.34 9 1.68 9 1 9 C0 7 0 7 0 0 Z " fill="#F6D211" transform="translate(232,825)"/>
<path d="M0 0 C0.66 0.99 1.32 1.98 2 3 C0 6 0 6 -2.875 6.6875 C-8.22342662 7.25527353 -13.63004139 7.07935899 -19 7 C-19 6.67 -19 6.34 -19 6 C-17.69675781 5.85304688 -17.69675781 5.85304688 -16.3671875 5.703125 C-7.46057877 4.57863906 -7.46057877 4.57863906 0 0 Z " fill="#F4D211" transform="translate(431,826)"/>
<path d="M0 0 C2.97379403 2.76870479 4.93235124 5.52259072 7 9 C7.66 9.33 8.32 9.66 9 10 C9 10.99 9 11.98 9 13 C9.66 13 10.32 13 11 13 C11.33 14.98 11.66 16.96 12 19 C8.75561206 16.15459828 6.61133276 12.54157114 4.3125 8.9375 C3.68891602 7.98133789 3.68891602 7.98133789 3.05273438 7.00585938 C0 2.24880696 0 2.24880696 0 0 Z " fill="#0F5FB0" transform="translate(673,797)"/>
<path d="M0 0 C0.66 0.33 1.32 0.66 2 1 C0.35 4.3 -1.3 7.6 -3 11 C-3.66 11 -4.32 11 -5 11 C-5.33 11.99 -5.66 12.98 -6 14 C-6.33 13.01 -6.66 12.02 -7 11 C-5.56640625 8.30078125 -5.56640625 8.30078125 -3.5625 5.3125 C-2.57443359 3.82169922 -2.57443359 3.82169922 -1.56640625 2.30078125 C-1.04949219 1.54152344 -0.53257812 0.78226563 0 0 Z " fill="#1066AB" transform="translate(585,705)"/>
<path d="M0 0 C-0.928125 0.61875 -0.928125 0.61875 -1.875 1.25 C-4.12883762 2.81249352 -4.12883762 2.81249352 -4.8125 5.125 C-5.204375 5.74375 -5.59625 6.3625 -6 7 C-9.625 7.75 -9.625 7.75 -13 8 C-12.04578192 6.85073734 -11.08647955 5.70569459 -10.125 4.5625 C-9.59132813 3.92441406 -9.05765625 3.28632812 -8.5078125 2.62890625 C-5.83867929 -0.25458739 -3.77605122 -0.09936977 0 0 Z " fill="#1064A8" transform="translate(414,788)"/>
<path d="M0 0 C6.258654 -0.5326514 10.45108785 1.18150494 16 4 C12.52452927 5.94566951 10.87493656 6.07637127 7 5 C7.33 4.01 7.66 3.02 8 2 C5.36 1.67 2.72 1.34 0 1 C0 0.67 0 0.34 0 0 Z " fill="#F6D212" transform="translate(760,770)"/>
<path d="M0 0 C-1.56641751 4.30764815 -3.68336156 8.06171464 -6 12 C-6.33 12 -6.66 12 -7 12 C-7 10.35 -7 8.7 -7 7 C-6.34 7 -5.68 7 -5 7 C-5 6.34 -5 5.68 -5 5 C-5.99 4.67 -6.98 4.34 -8 4 C-3.375 0 -3.375 0 0 0 Z " fill="#0F63A6" transform="translate(387,782)"/>
<path d="M0 0 C0.33 1.32 0.66 2.64 1 4 C0.34 4.66 -0.32 5.32 -1 6 C-1.66 5.67 -2.32 5.34 -3 5 C-3 4.01 -3 3.02 -3 2 C-7.62 2 -12.24 2 -17 2 C-17 1.67 -17 1.34 -17 1 C-8.585 0.505 -8.585 0.505 0 0 Z " fill="#E2C221" transform="translate(595,684)"/>
<path d="M0 0 C0.66 0 1.32 0 2 0 C3.5859375 1.609375 3.5859375 1.609375 5.375 3.75 C7.81617866 6.6243732 10.27649992 9.38543992 13 12 C12.67 12.66 12.34 13.32 12 14 C9.99387601 12.04761147 7.99507567 10.08862178 6 8.125 C5.42765625 7.56941406 4.8553125 7.01382812 4.265625 6.44140625 C2.80549218 4.99865596 1.39850702 3.5025626 0 2 C0 1.34 0 0.68 0 0 Z " fill="#F0611C" transform="translate(466,421)"/>
<path d="M0 0 C1.32 0 2.64 0 4 0 C3.62005832 2.75457718 3.1926367 3.82020574 1.125 5.75 C-1 7 -1 7 -4 7 C-4 6.01 -4 5.02 -4 4 C-3.34 4 -2.68 4 -2 4 C-1.67 3.34 -1.34 2.68 -1 2 C-0.34 2.33 0.32 2.66 1 3 C0.67 2.01 0.34 1.02 0 0 Z " fill="#DD612A" transform="translate(565,361)"/>
<path d="M0 0 C6.6 0.33 13.2 0.66 20 1 C20 1.33 20 1.66 20 2 C18.87980469 2.04898438 17.75960937 2.09796875 16.60546875 2.1484375 C15.13278797 2.22347856 13.66013293 2.29902582 12.1875 2.375 C11.44951172 2.4059375 10.71152344 2.436875 9.95117188 2.46875 C6.18106885 2.67346148 4.20349259 2.86433827 1 5 C0.67 3.35 0.34 1.7 0 0 Z " fill="#E1BF23" transform="translate(523,684)"/>
<path d="M0 0 C1.65 0.33 3.3 0.66 5 1 C0.69230769 6.78461538 0.69230769 6.78461538 -2.8125 7.875 C-3.8953125 7.936875 -3.8953125 7.936875 -5 8 C-4.34 7.01 -3.68 6.02 -3 5 C-2.67 4.34 -2.34 3.68 -2 3 C-1.01 3 -0.02 3 1 3 C1.33 2.34 1.66 1.68 2 1 C1.34 0.67 0.68 0.34 0 0 Z " fill="#0C61AC" transform="translate(770,821)"/>
<path d="M0 0 C1.33106622 0.34227417 2.66400079 0.67751743 4 1 C3.67 1.99 3.34 2.98 3 4 C-2.94 2.515 -2.94 2.515 -9 1 C-9 0.67 -9 0.34 -9 0 C-3.375 -1.125 -3.375 -1.125 0 0 Z " fill="#276FA1" transform="translate(669,224)"/>
<path d="M0 0 C3.25914951 3.08297927 6.06553673 5.9161331 8 10 C7.67 10.99 7.34 11.98 7 13 C6.54625 12.195625 6.0925 11.39125 5.625 10.5625 C4.25274335 7.91143428 4.25274335 7.91143428 2 7 C1.26924352 4.6859378 0.59861742 2.35171131 0 0 Z " fill="#1464AB" transform="translate(674,831)"/>
<path d="M0 0 C3.7952131 1.49097658 5.61042731 3.75700849 8 7 C7.34 7.66 6.68 8.32 6 9 C4.76302083 7.50260417 3.52604167 6.00520833 2.2890625 4.5078125 C1.24749008 3.28948839 0.13339903 2.13339903 -1 1 C-0.67 0.67 -0.34 0.34 0 0 Z " fill="#D7622A" transform="translate(430,456)"/>
<path d="M0 0 C0.66 0 1.32 0 2 0 C2 0.66 2 1.32 2 2 C2.99 2.33 3.98 2.66 5 3 C4.34 5.64 3.68 8.28 3 11 C2.67 11 2.34 11 2 11 C1.34 7.37 0.68 3.74 0 0 Z " fill="#F16119" transform="translate(528,879)"/>
<path d="M0 0 C2.64 0 5.28 0 8 0 C8.33 0.99 8.66 1.98 9 3 C6.33333333 3 3.66666667 3 1 3 C0.67 2.01 0.34 1.02 0 0 Z " fill="#0E63AE" transform="translate(415,787)"/>
<path d="M0 0 C1.98 1.65 3.96 3.3 6 5 C5.67 5.66 5.34 6.32 5 7 C4.34 7 3.68 7 3 7 C3 6.34 3 5.68 3 5 C2.01 5 1.02 5 0 5 C0 3.35 0 1.7 0 0 Z M-1 5 C-0.34 5.66 0.32 6.32 1 7 C0.34 7 -0.32 7 -1 7 C-1 6.34 -1 5.68 -1 5 Z " fill="#135A83" transform="translate(474,431)"/>
<path d="M0 0 C-0.25561323 2.3431213 -0.59270772 4.67843403 -1 7 C-1.99 7.495 -1.99 7.495 -3 8 C-3.33 6.02 -3.66 4.04 -4 2 C-1 0 -1 0 0 0 Z " fill="#0C6CAA" transform="translate(530,885)"/>
<path d="M0 0 C0.99 0.33 1.98 0.66 3 1 C2.34 2.65 1.68 4.3 1 6 C-0.65 5.67 -2.3 5.34 -4 5 C-2.68 3.35 -1.36 1.7 0 0 Z " fill="#DA6129" transform="translate(595,402)"/>
<path d="M0 0 C0 3.99904969 -1.72586967 5.80200422 -4 9 C-4.99 8.67 -5.98 8.34 -7 8 C-7 7.34 -7 6.68 -7 6 C-6.01 5.67 -5.02 5.34 -4 5 C-2.61423077 3.37667033 -1.27358732 1.71275535 0 0 Z " fill="#1271AD" transform="translate(339,237)"/>
<path d="M0 0 C0.99 0 1.98 0 3 0 C3 2.97 3 5.94 3 9 C1 5 1 5 1 3 C0.01 3.33 -0.98 3.66 -2 4 C-1.34 2.68 -0.68 1.36 0 0 Z " fill="#0960A9" transform="translate(435,804)"/>
<path d="M0 0 C5.5952381 0.5952381 5.5952381 0.5952381 8 3 C7.01 3.33 6.02 3.66 5 4 C5 3.34 5 2.68 5 2 C3.35 2.66 1.7 3.32 0 4 C-0.33 3.01 -0.66 2.02 -1 1 C-0.67 0.67 -0.34 0.34 0 0 Z " fill="#F7D011" transform="translate(269,771)"/>
<path d="M0 0 C0 3.59734407 -0.68031389 4.34893016 -3 7 C-4.30144802 8.04115841 -5.62797869 9.05377841 -7 10 C-6.42424336 6.64749299 -5.40693737 5.06181371 -2.9375 2.75 C-2.38964844 2.22921875 -1.84179688 1.7084375 -1.27734375 1.171875 C-0.64505859 0.59179688 -0.64505859 0.59179688 0 0 Z " fill="#F16219" transform="translate(515,487)"/>
<path d="M0 0 C1.32 0.33 2.64 0.66 4 1 C2.95125002 3.62187494 2.35068687 4.79371361 -0.125 6.25 C-0.74375 6.4975 -1.3625 6.745 -2 7 C-1.34 6.01 -0.68 5.02 0 4 C0 2.68 0 1.36 0 0 Z " fill="#F56321" transform="translate(583,343)"/>
<path d="M0 0 C2.49361571 1.20381448 4.68143083 2.45428722 7 4 C6.01 5.485 6.01 5.485 5 7 C3.29115995 5.37660195 1.62553283 3.70680947 0 2 C0 1.34 0 0.68 0 0 Z " fill="#165A86" transform="translate(441,465)"/>
<path d="M0 0 C0 3.57575896 -1.08840607 5.05295935 -3 8 C-3.99 7.67 -4.98 7.34 -6 7 C-4.02 4.69 -2.04 2.38 0 0 Z " fill="#DB6227" transform="translate(561,437)"/>
<path d="M0 0 C2.32590854 3.63423209 2.16265833 6.77088331 2 11 C0.4375 9.4375 0.4375 9.4375 -1 7 C-0.6875 3.25 -0.6875 3.25 0 0 Z " fill="#DABD27" transform="translate(395,801)"/>
<path d="M0 0 C1.125 3.75 1.125 3.75 0 6 C-1.65 6 -3.3 6 -5 6 C-3.35 4.02 -1.7 2.04 0 0 Z " fill="#015C90" transform="translate(570,362)"/>
<path d="M0 0 C2.125 0.375 2.125 0.375 4 1 C2.68 2.65 1.36 4.3 0 6 C-0.66 4.68 -1.32 3.36 -2 2 C-1.34 1.34 -0.68 0.68 0 0 Z " fill="#DE612A" transform="translate(519,482)"/>
<path d="M0 0 C0.66 0.33 1.32 0.66 2 1 C1.04882866 2.1725131 0.08882991 3.33787015 -0.875 4.5 C-1.40867187 5.1496875 -1.94234375 5.799375 -2.4921875 6.46875 C-2.98976563 6.9740625 -3.48734375 7.479375 -4 8 C-4.66 8 -5.32 8 -6 8 C-4.55746343 4.63408134 -2.66735273 2.48952921 0 0 Z " fill="#F76318" transform="translate(540,460)"/>
<path d="M0 0 C0.66 0 1.32 0 2 0 C2.33 1.65 2.66 3.3 3 5 C2.01 5.66 1.02 6.32 0 7 C-1.125 2.25 -1.125 2.25 0 0 Z " fill="#DD622A" transform="translate(500,425)"/>
</svg>
